<?xml version="1.0" standalone="no"?>
<!DOCTYPE svg PUBLIC "-//W3C//DTD SVG 20010904//EN"
 "http://www.w3.org/TR/2001/REC-SVG-20010904/DTD/svg10.dtd">
<svg version="1.0" xmlns="http://www.w3.org/2000/svg"
 width="16.000000pt" height="16.000000pt" viewBox="0 0 16.000000 16.000000"
 preserveAspectRatio="xMidYMid meet">

<g transform="translate(0.000000,16.000000) scale(0.100000,-0.100000)"
fill="#000000" stroke="none">
<path d="M41 90 c-34 -77 -35 -80 -23 -80 5 0 19 22 32 50 13 28 27 50 30 50
4 0 17 -22 28 -50 12 -27 26 -50 31 -50 6 0 11 2 11 5 0 13 -64 145 -70 145
-4 0 -21 -32 -39 -70z"/>
<path d="M64 55 c-7 -28 7 -52 25 -41 16 10 14 41 -4 56 -12 10 -15 7 -21 -15z
m26 -15 c0 -5 -4 -10 -10 -10 -5 0 -10 5 -10 10 0 6 5 10 10 10 6 0 10 -4 10
-10z"/>
</g>
</svg>
