<svg xmlns="http://www.w3.org/2000/svg" version="1.1" xlink="http://www.w3.org/1999/xlink" xmlns:svgjs="http://svgjs.com/svgjs" width="100%" height="100%" viewBox="68.50001525878906 106.10000610351562 375 299.8999938964844"><g fill="url(#SvgjsLinearGradient1093)"><path d="M406 237.7v-.4c0-62-50.5-112.5-112.5-112.5-4 0-8.1.3-12.3.8-18.8-12.8-40.3-19.5-62.7-19.5-62 0-112.5 50.5-112.5 112.5 0 5.8.5 11.7 1.7 17.8-24.5 17.4-39.2 45.4-39.2 75.9 0 51.7 42.1 93.7 93.8 93.7h187.5c51.7 0 93.7-42.1 93.7-93.7 0-29.4-14.1-57-37.5-74.6zm-56.2 55.8h-46.2l-31.9 47.9c-3.5 5.3-9.4 8.3-15.6 8.3-1.4 0-2.8-.1-4.2-.5-7.6-1.7-13.3-7.9-14.4-15.6l-10.3-71.8-10.7 21.3c-3.2 6.4-9.7 10.4-16.8 10.4h-37.5V256h25.9l32.3-64.6c3.7-7.3 11.6-11.4 19.8-10.1 8.1 1.3 14.4 7.7 15.6 15.9l11.8 82.7 10.3-15.4c3.5-5.2 9.3-8.3 15.6-8.3h56.2v37.3z"></path></g><defs><linearGradient gradientUnits="userSpaceOnUse" id="SvgjsLinearGradient1093" x1="87.2750167846679" y1="424.775001525879" x2="424.72501373291016" y2="87.32500457763669"><stop stop-color="#6bc2f1" offset="0.05"></stop><stop stop-color="#1389c9" offset="0.95"></stop></linearGradient></defs></svg>